<svg xmlns="http://www.w3.org/2000/svg" xmlns:xlink="http://www.w3.org/1999/xlink" version="1.1" x="0px" y="0px" viewBox="0 0 260 325" style="enable-background:new 0 0 260 260;" xml:space="preserve"><path d="M252,237.4l-68.2-67.3c14.4-17.4,23-39.8,23-64.2C206.8,50.2,161.6,5,105.9,5C50.2,5,5,50.2,5,105.9  c0,55.7,45.2,100.9,100.9,100.9c24.2,0,46.3-8.5,63.7-22.6l68.4,67.5c1.9,1.9,4.5,2.9,7,2.9c2.6,0,5.2-1,7.1-3  C256,247.6,256,241.3,252,237.4z M25,105.9C25,61.3,61.3,25,105.9,25s80.9,36.3,80.9,80.9s-36.3,80.9-80.9,80.9S25,150.5,25,105.9z"/><text x="0" y="275" fill="#000000" font-size="5px" font-weight="bold" font-family="'Helvetica Neue', Helvetica, Arial-Unicode, Arial, Sans-serif">Created by Niklas Bäversten</text><text x="0" y="280" fill="#000000" font-size="5px" font-weight="bold" font-family="'Helvetica Neue', Helvetica, Arial-Unicode, Arial, Sans-serif">from the Noun Project</text></svg>