<svg xmlns="http://www.w3.org/2000/svg" data-name="Layer 1" viewBox="0 0 100 125" x="0px" y="0px"><title>15</title><g data-name="Group"><path data-name="Compound Path" d="M50,4.3A45.7,45.7,0,1,0,95.7,50,45.8,45.8,0,0,0,50,4.3ZM10.4,53H22.7a61.1,61.1,0,0,0,2.5,15H14.6A39.4,39.4,0,0,1,10.4,53ZM53,26V11.8A35.9,35.9,0,0,1,65.9,26Zm15.5,6a53.9,53.9,0,0,1,2.8,15H53V32ZM47,11.8V26H34.1A35.9,35.9,0,0,1,47,11.8ZM47,32V47H28.7a53.9,53.9,0,0,1,2.8-15ZM22.7,47H10.4a39.4,39.4,0,0,1,4.2-15H25.2A61.1,61.1,0,0,0,22.7,47Zm6,6H47V68H31.5A53.9,53.9,0,0,1,28.7,53ZM47,74V88.2A35.9,35.9,0,0,1,34.1,74Zm6,14.2V74H65.9A35.9,35.9,0,0,1,53,88.2ZM53,68V53H71.3a53.9,53.9,0,0,1-2.8,15ZM77.3,53H89.6a39.4,39.4,0,0,1-4.2,15H74.8A61.1,61.1,0,0,0,77.3,53Zm0-6a61.1,61.1,0,0,0-2.5-15H85.4a39.4,39.4,0,0,1,4.2,15Zm4.3-21h-9a44.6,44.6,0,0,0-8.9-13.3A39.9,39.9,0,0,1,81.6,26ZM36.3,12.7A44.6,44.6,0,0,0,27.4,26h-9A39.9,39.9,0,0,1,36.3,12.7ZM18.4,74h9a44.6,44.6,0,0,0,8.9,13.3A39.9,39.9,0,0,1,18.4,74ZM63.7,87.3A44.6,44.6,0,0,0,72.6,74h9A39.9,39.9,0,0,1,63.7,87.3Z"/></g><text x="0" y="115" fill="#000000" font-size="5px" font-weight="bold" font-family="'Helvetica Neue', Helvetica, Arial-Unicode, Arial, Sans-serif">Created by Drishya</text><text x="0" y="120" fill="#000000" font-size="5px" font-weight="bold" font-family="'Helvetica Neue', Helvetica, Arial-Unicode, Arial, Sans-serif">from the Noun Project</text></svg>