<svg xmlns:dc="http://purl.org/dc/elements/1.1/" xmlns:cc="http://creativecommons.org/ns#" xmlns:rdf="http://www.w3.org/1999/02/22-rdf-syntax-ns#" xmlns:svg="http://www.w3.org/2000/svg" xmlns="http://www.w3.org/2000/svg" xmlns:sodipodi="http://sodipodi.sourceforge.net/DTD/sodipodi-0.dtd" xmlns:inkscape="http://www.inkscape.org/namespaces/inkscape" version="1.1" x="0px" y="0px" viewBox="0 0 100 125"><g transform="translate(0,-952.36218)"><path style="text-indent:0;text-transform:none;direction:ltr;block-progression:tb;baseline-shift:baseline;color:#000000;enable-background:accumulate;" d="M 50 5 C 39.54208 5 31 13.54213 31 24 C 31 34.45788 39.54208 43 50 43 C 60.45792 43 69 34.45788 69 24 C 69 13.54213 60.45792 5 50 5 z M 50 11 C 57.215254 11 63 16.78477 63 24 C 63 31.21524 57.215254 37 50 37 C 42.784746 37 37 31.21524 37 24 C 37 16.78477 42.784746 11 50 11 z M 50 45 C 40.095368 45 31.121299 47.36004 24.40625 51.34375 C 17.691201 55.32735 13 61.1834 13 68 L 13 87.5625 A 3.0003 3.0003 0 0 0 15.1875 90.4375 C 25.015715 93.1521 35.722018 94.75 46.90625 95 A 3.0003 3.0003 0 0 0 46.96875 95 L 53.03125 95 A 3.0003 3.0003 0 0 0 53.09375 95 C 64.277982 94.75 74.984285 93.1521 84.8125 90.4375 A 3.0003 3.0003 0 0 0 87 87.5625 L 87 68 C 87 61.1834 82.308799 55.32735 75.59375 51.34375 C 68.878701 47.36004 59.904632 45 50 45 z M 50 51 C 58.931368 51 66.955299 53.1921 72.53125 56.5 C 78.107201 59.8079 81 63.9828 81 68 L 81 85.125 C 72.271189 87.3547 62.909222 88.7745 53.03125 89 L 52.96875 89 L 47.03125 89 C 47.00999 88.9995 46.99 89.0005 46.96875 89 C 37.090778 88.7745 27.728811 87.3547 19 85.125 L 19 68 C 19 63.9828 21.892799 59.8079 27.46875 56.5 C 33.044701 53.1921 41.068632 51 50 51 z " transform="translate(0,952.36218)" fill="#000000" fill-opacity="1" stroke="none" marker="none" visibility="visible" display="inline" overflow="visible"/></g><text x="0" y="115" fill="#000000" font-size="5px" font-weight="bold" font-family="'Helvetica Neue', Helvetica, Arial-Unicode, Arial, Sans-serif">Created by iconsphere</text><text x="0" y="120" fill="#000000" font-size="5px" font-weight="bold" font-family="'Helvetica Neue', Helvetica, Arial-Unicode, Arial, Sans-serif">from the Noun Project</text></svg>